<svg width="32" height="32" viewBox="0 0 32 32" fill="none" xmlns="http://www.w3.org/2000/svg">
<rect width="32" height="32" fill="#1F3B5D"/>
<path d="M11.5256 20.3263L15.0514 18.8153L18.5519 20.3263L15.0514 21.8625L11.5256 20.3263Z" fill="#FF6100"/>
<path d="M18.6023 16.8762L15.1018 15.34V18.8153L18.6023 20.3515V16.8762Z" fill="#FF6100"/>
<path d="M11.5005 16.4229L8 14.8867V18.362L11.5005 19.8982V16.4229Z" fill="#FF6100"/>
<path d="M8.0503 14.8363L11.576 13.3253L15.0765 14.8363L11.576 16.3725L8.0503 14.8363Z" fill="#FF6100"/>
<path d="M11.5759 13.2245L15.1016 11.7135L18.6022 13.2245L15.1016 14.7608L11.5759 13.2245Z" fill="#FF6100"/>
<path d="M15.1522 4.51102L18.6779 3L22.1785 4.51102L18.6779 6.04722L15.1522 4.51102Z" fill="#FF6100"/>
<path d="M11.5005 19.999L8 18.4628V21.9381L11.5005 23.4743V19.999Z" fill="#FF6100"/>
<path d="M11.5005 23.5247L8 21.9885V25.4638L11.5005 27V23.5247Z" fill="#FF6100"/>
<path d="M11.576 16.4229L15.0765 14.8867V18.362L11.576 19.8982V16.4229Z" fill="#FFA200"/>
<path d="M11.576 19.999L15.0765 18.4628V21.9381L11.576 23.4743V19.999Z" fill="#FFA200"/>
<path d="M11.576 23.5247L15.0765 21.9885V25.4638L11.576 27V23.5247Z" fill="#FFA200"/>
<path d="M15.1522 14.8615L18.6527 13.3253V16.8006L15.1522 18.3368V14.8615Z" fill="#FFA200"/>
<path d="M15.1522 21.9129L18.6527 20.3767V23.852L15.1522 25.3883V21.9129Z" fill="#FFA200"/>
<path d="M18.7282 13.3001L22.2288 11.7639V15.2392L18.7282 16.7754V13.3001Z" fill="#FFA200"/>
<path d="M18.7282 16.8258L22.2288 15.2896V18.7649L18.7282 20.3011V16.8258Z" fill="#FFA200"/>
<path d="M18.7282 6.14799L22.2288 4.61179V8.08713L18.7282 9.62333V6.14799Z" fill="#FFA200"/>
<path d="M18.7282 9.72404L22.2288 8.18784V11.6632L18.7282 13.1994V9.72404Z" fill="#FFA200"/>
<path d="M18.6527 6.14799L15.1522 4.61179V8.08713L18.6527 9.62333V6.14799Z" fill="#FF6100"/>
<path d="M18.6527 9.72404L15.1522 8.18784V11.6632L18.6527 13.1994V9.72404Z" fill="#FF6100"/>
<path d="M18.7282 20.3515L22.2288 18.8153V22.2906L18.7282 23.8268V20.3515Z" fill="#FFA200"/>
</svg>
