<?xml version="1.0" encoding="UTF-8"?>
<svg width="247px" height="227px" viewBox="0 0 247 227" version="1.1" xmlns="http://www.w3.org/2000/svg" xmlns:xlink="http://www.w3.org/1999/xlink">
    <!-- Generator: Sketch 52.5 (67469) - http://www.bohemiancoding.com/sketch -->
    <title>user</title>
    <desc>Created with Sketch.</desc>
    <g id="Page-1" stroke="none" stroke-width="1" fill="none" fill-rule="evenodd">
        <g id="user">
            <g id="Group">
                <g id="user" transform="translate(0.000000, 19.000000)" fill="#152C4D">
                    <polyline id="Fill-312" points="150 208 98 208 98 121 102.988967 121 102.988967 203.009179 145.011033 203.009179 145.011033 121 150 121 150 208"></polyline>
                    <polygon id="Fill-313" points="121 208 126 208 126 141 121 141"></polygon>
                    <path d="M100.461134,135 L82,135 L82,66.7527153 C82,55.312563 91.3203782,46 102.78125,46 L139,46 L139,50.9826447 L102.78125,50.9826447 C94.0745798,50.9826447 86.9894958,58.0580002 86.9894958,66.7527153 L86.9894958,130.017355 L100.461134,130.017355 L100.461134,135" id="Fill-314"></path>
                    <path d="M165,135 L146.607574,135 L146.607574,130.017355 L160.030417,130.017355 L160.030417,66.7527153 C160.030417,58.0580002 152.978579,50.9826447 144.306658,50.9826447 L107,50.9826447 L107,46 L144.306658,46 C155.71185,46 165,55.312563 165,66.7527153 L165,135" id="Fill-315"></path>
                    <polyline id="Fill-320" points="198.496145 111 184 96.4975226 198.496145 82 202 85.5029899 191.007709 96.4975226 202 107.49701 198.496145 111"></polyline>
                    <polygon id="Fill-321" points="186 99 227 99 227 94 186 94"></polygon>
                    <polygon id="Fill-322" points="240 99 247 99 247 94 240 94"></polygon>
                    <polygon id="Fill-323" points="230 99 237 99 237 94 230 94"></polygon>
                    <polyline id="Fill-324" points="48.5019263 111 45 107.49701 55.9961475 96.4975226 45 85.5029899 48.5019263 82 63 96.4975226 48.5019263 111"></polyline>
                    <polygon id="Fill-325" points="20 99 61 99 61 94 20 94"></polygon>
                    <polygon id="Fill-326" points="0 99 7 99 7 94 0 94"></polygon>
                    <polygon id="Fill-327" points="10 99 17 99 17 94 10 94"></polygon>
                    <polyline id="Fill-328" points="194 47 173 47 173 26 178.074915 26 178.074915 41.9238579 194 41.9238579 194 47"></polyline>
                    <polyline id="Fill-329" points="176.503252 46 173 42.4967482 201.496748 14 205 17.5032518 176.503252 46"></polyline>
                    <polyline id="Fill-330" points="214.633923 9 211 5.36607653 216.366077 0 220 3.63392347 214.633923 9"></polyline>
                    <polyline id="Fill-331" points="207.633923 16 204 12.3660765 209.366077 7 213 10.6339235 207.633923 16"></polyline>
                    <polyline id="Fill-332" points="74 166 68.9263107 166 68.9263107 150.074915 53 150.074915 53 145 74 145 74 166"></polyline>
                    <polyline id="Fill-333" points="45.5037943 178 42 174.496206 70.4962057 146 74 149.503794 45.5037943 178"></polyline>
                    <polyline id="Fill-334" points="30.636 192 27 188.364 32.364 183 36 186.636 30.636 192"></polyline>
                    <polyline id="Fill-335" points="37.636 185 34 181.364 39.364 176 43 179.636 37.636 185"></polyline>
                    <polyline id="Fill-336" points="74 47 53 47 53 41.9238579 68.9263107 41.9238579 68.9263107 26 74 26 74 47"></polyline>
                    <polyline id="Fill-337" points="70.4962057 46 42 17.5032518 45.5037943 14 74 42.4967482 70.4962057 46"></polyline>
                    <polyline id="Fill-338" points="32.3588571 9 27 3.62878355 30.6411429 0 36 5.37121645 32.3588571 9"></polyline>
                    <polyline id="Fill-339" points="39.3588571 16 34 10.6287836 37.6411429 7 43 12.3712164 39.3588571 16"></polyline>
                    <polyline id="Fill-340" points="178.074915 166 173 166 173 145 194 145 194 150.074915 178.074915 150.074915 178.074915 166"></polyline>
                    <polyline id="Fill-341" points="201.496748 178 173 149.503794 176.503252 146 205 174.496206 201.496748 178"></polyline>
                    <polyline id="Fill-342" points="216.371216 192 211 186.641143 214.628784 183 220 188.358857 216.371216 192"></polyline>
                    <polyline id="Fill-343" points="209.371216 185 204 179.641143 207.628784 176 213 181.358857 209.371216 185"></polyline>
                </g>
                <g id="h3" transform="translate(94.000000, 0.000000)">
                    <path d="M45.2608127,53.987812 L42.9180675,61.0160477 L17.06381,61.0160477 L14.7210647,53.987812 C6.8028341,48.9387106 1.55125545,40.0781106 1.55125545,29.9909387 C1.55125545,14.2841354 14.2841354,1.55125545 29.9909387,1.55125545 C45.6977421,1.55125545 58.430622,14.2841354 58.430622,29.9909387 C58.430622,40.0781106 53.1790433,48.9387106 45.2608127,53.987812 Z" id="Combined-Shape" fill="#7ADDF5"></path>
                    <path d="M32.0592793,11.3758733 C31.2025446,11.3758733 30.5080239,10.6813526 30.5080239,9.82461786 C30.5080239,8.96788313 31.2025446,8.27336241 32.0592793,8.27336241 C42.9112526,8.27336241 51.708515,17.0706249 51.708515,27.9225981 C51.708515,28.7793328 51.0139943,29.4738536 50.1572596,29.4738536 C49.3005249,29.4738536 48.6060041,28.7793328 48.6060041,27.9225981 C48.6060041,18.7840943 41.1977831,11.3758733 32.0592793,11.3758733 Z M49.6401744,35.1617902 C48.7834397,35.1617902 48.088919,34.4672695 48.088919,33.6105348 C48.088919,32.7538 48.7834397,32.0592793 49.6401744,32.0592793 C50.4969092,32.0592793 51.1914299,32.7538 51.1914299,33.6105348 C51.1914299,34.4672695 50.4969092,35.1617902 49.6401744,35.1617902 Z" id="Combined-Shape" fill="#FFFFFF" fill-rule="nonzero"></path>
                    <path d="M31.5421942,48.9924447 L31.5421942,61.0160477 C31.5421942,61.8727825 30.8476735,62.5673032 29.9909387,62.5673032 C29.134204,62.5673032 28.4396833,61.8727825 28.4396833,61.0160477 L28.4396833,48.9885644 C28.180801,48.8307763 27.8870567,48.6441094 27.5644644,48.4288152 C26.3168734,47.596188 25.0704039,46.6141323 23.9025582,45.4829655 C22.6971817,44.3154467 21.6430956,43.0516662 20.7848303,41.6896953 C17.501426,36.4793008 19.4339169,30.7330065 24.3467473,30.0494688 C26.4105406,29.7623267 28.2303141,30.5163506 29.7493409,31.8920069 C29.831882,31.9667575 29.912411,32.0424057 29.9909387,32.1187924 C30.0694664,32.0424057 30.1499955,31.9667575 30.2325365,31.8920069 C31.7515633,30.5163506 33.5713368,29.7623267 35.6351301,30.0494688 C40.5479605,30.7330065 42.4804515,36.4793008 39.1970472,41.6896953 C37.801232,43.9046974 35.9203793,45.8251661 33.7775445,47.4578988 C32.9722989,48.0714555 32.1653272,48.6112759 31.5421942,48.9924447 Z M31.8972184,44.9901168 C33.7671107,43.5653527 35.396049,41.9021045 36.5722335,40.0356315 C38.7422704,36.5920262 37.6916523,33.4679955 35.2075863,33.1223795 C34.1776976,32.9790878 33.2124248,33.379049 32.3151333,34.1916513 C32.0253566,34.454078 31.7679163,34.7384727 31.5494872,35.0212081 C31.4241624,35.183429 31.3452793,35.2998108 31.3171783,35.3461267 L29.9909387,37.5320256 L28.6646992,35.3461267 C28.6365981,35.2998108 28.557715,35.183429 28.4323903,35.0212081 C28.2139612,34.7384727 27.9565208,34.454078 27.6667441,34.1916513 C26.7694526,33.379049 25.8041798,32.9790878 24.7742912,33.1223795 C22.2902251,33.4679955 21.239607,36.5920262 23.409644,40.0356315 C24.127799,41.1752631 25.0247606,42.2506616 26.0610895,43.2544421 C27.0847315,44.2459343 28.1862846,45.1138147 29.2867162,45.8482295 C29.5344602,46.0135709 29.7700895,46.1639713 29.9909273,46.2991809 C30.5971958,45.927354 31.2381608,45.4922856 31.8972184,44.9901168 Z" id="Combined-Shape" fill="#152C4D" fill-rule="nonzero"></path>
                    <path d="M29.9909387,79.114028 C34.2746124,79.114028 37.747216,75.6414244 37.747216,71.3577508 C40.6009215,71.3577508 42.9180675,69.0426817 42.9180675,66.1868992 L42.9180675,61.0160477 L17.06381,61.0160477 L17.06381,66.1868992 C17.06381,69.0433096 19.3784334,71.3577508 22.233666,71.3577508 C22.2346615,75.6414244 25.7072651,79.114028 29.9909387,79.114028 Z" id="Combined-Shape" fill="#FCE276"></path>
                    <path d="M41.366812,64.6356438 L41.366812,62.5673032 L18.6150654,62.5673032 L18.6150654,64.6356438 L41.366812,64.6356438 Z M41.0181252,67.7381547 L18.9631717,67.7381547 C19.5438567,68.9611781 20.7899505,69.8064953 22.233666,69.8064953 L37.7482114,69.8064953 C39.1904068,69.8064953 40.4369019,68.9607379 41.0181252,67.7381547 Z M15.5125545,61.2677819 L13.420762,54.9924043 C5.11386163,49.4782981 0,40.1712335 0,29.9909387 C0,13.4274006 13.4274006,0 29.9909387,0 C46.5544768,0 59.9818774,13.4274006 59.9818774,29.9909387 C59.9818774,40.1712335 54.8680158,49.4782981 46.5611155,54.9924043 L44.4693229,61.2677819 L44.4693229,66.1868992 C44.4693229,69.4018963 42.2103824,72.0907415 39.1946203,72.7528104 C38.5214652,77.2314325 34.6572114,80.6652835 29.9909387,80.6652835 C25.3247324,80.6652835 21.4605221,77.2315302 20.7872859,72.7530015 C17.7703358,72.0913854 15.5125545,69.4031503 15.5125545,66.1868992 L15.5125545,61.2677819 Z M41.7999858,59.4647923 L43.9630741,52.9755276 L44.4267796,52.6798433 C52.1237515,47.7718286 56.8793665,39.2894334 56.8793665,29.9909387 C56.8793665,15.1408701 44.8410074,3.1025109 29.9909387,3.1025109 C15.1408701,3.1025109 3.1025109,15.1408701 3.1025109,29.9909387 C3.1025109,39.2894334 7.85812592,47.7718286 15.5550979,52.6798433 L16.0188034,52.9755276 L18.1818916,59.4647923 L41.7999858,59.4647923 Z M23.9814022,72.9090062 C24.670226,75.5852743 27.0996476,77.5627726 29.9909387,77.5627726 C32.8822298,77.5627726 35.3116514,75.5852743 36.0004752,72.9090062 L23.9814022,72.9090062 Z" id="Combined-Shape" fill="#152C4D" fill-rule="nonzero"></path>
                </g>
            </g>
        </g>
    </g>
</svg>