<?xml version="1.0" encoding="UTF-8"?>
<svg width="229px" height="247px" viewBox="0 0 229 247" version="1.1" xmlns="http://www.w3.org/2000/svg" xmlns:xlink="http://www.w3.org/1999/xlink">
    <!-- Generator: Sketch 52.5 (67469) - http://www.bohemiancoding.com/sketch -->
    <title>lab</title>
    <desc>Created with Sketch.</desc>
    <g id="Page-1" stroke="none" stroke-width="1" fill="none" fill-rule="evenodd">
        <g id="lab">
            <path d="M115.187109,187.61206 C100.590081,187.61206 88.7152508,199.488968 88.7152508,214.088549 C88.7152508,228.682081 100.590081,240.558989 115.187109,240.558989 C129.784136,240.558989 141.658966,228.682081 141.658966,214.088549 C141.658966,199.488968 129.784136,187.61206 115.187109,187.61206 Z M115.187109,246.609375 C97.2569014,246.609375 82.6659232,232.021894 82.6659232,214.088549 C82.6659232,196.149155 97.2569014,181.561674 115.187109,181.561674 C133.117316,181.561674 147.708294,196.149155 147.708294,214.088549 C147.708294,232.021894 133.117316,246.609375 115.187109,246.609375 Z" id="Fill-276" fill="#152C4D"></path>
            <polygon id="Fill-277" fill="#152C4D" points="2.72824677 67.328697 225.966585 67.328697 225.966585 61.2783108 2.72824677 61.2783108"></polygon>
            <polygon id="Fill-278" fill="#152C4D" points="89.5965917 156.130214 1.42108547e-14 65.5498834 1.42108547e-14 35.6609759 69.2708508 35.6609759 69.2708508 41.7113621 6.04932764 41.7113621 6.04932764 63.0571244 92.1252106 150.079828 136.188513 150.079828 222.270446 63.0571244 222.270446 41.7113621 159.048922 41.7113621 159.048922 35.6609759 228.319773 35.6609759 228.319773 65.5498834 138.717132 156.130214"></polygon>
            <polyline id="Fill-279" fill="#152C4D" points="140.544029 176.453461 134.494701 176.453461 134.494701 156.130214 93.885565 156.130214 93.885565 176.453461 87.8362373 176.453461 87.8362373 150.079828 140.544029 150.079828 140.544029 176.453461"></polyline>
            <polygon id="Fill-280" fill="#152C4D" points="44.0330559 82.9689451 185.865592 82.9689451 185.865592 76.918559 44.0330559 76.918559"></polygon>
            <path d="M87.2978472,6.05038614 C82.4583851,6.05038614 78.5263221,9.98313713 78.5263221,14.823446 C78.5263221,19.663755 82.4583851,23.5965059 87.2978472,23.5965059 C92.1373093,23.5965059 96.0693723,19.663755 96.0693723,14.823446 C96.0693723,9.98313713 92.1373093,6.05038614 87.2978472,6.05038614 Z M87.2978472,29.6468921 C79.1252055,29.6468921 72.4769945,22.9975177 72.4769945,14.823446 C72.4769945,6.64937437 79.1252055,-2.84217094e-14 87.2978472,-2.84217094e-14 C95.4704888,-2.84217094e-14 102.1187,6.64937437 102.1187,14.823446 C102.1187,22.9975177 95.4704888,29.6468921 87.2978472,29.6468921 Z" id="Fill-281" fill="#FFA200"></path>
            <path d="M132.88558,16.5720076 C128.046118,16.5720076 124.114055,20.510809 124.114055,25.3450675 C124.114055,30.1853765 128.046118,34.1241778 132.88558,34.1241778 C137.725042,34.1241778 141.657105,30.1853765 141.657105,25.3450675 C141.657105,20.510809 137.725042,16.5720076 132.88558,16.5720076 Z M132.88558,40.174564 C124.718988,40.174564 118.064728,33.5251896 118.064728,25.3450675 C118.064728,17.1709959 124.718988,10.5216215 132.88558,10.5216215 C141.058222,10.5216215 147.706433,17.1709959 147.706433,25.3450675 C147.706433,33.5251896 141.058222,40.174564 132.88558,40.174564 Z" id="Fill-282" fill="#FF6100"></path>
            <path d="M93.8432197,61.2783108 L109.281104,61.2783108 C109.976777,60.0016794 110.339736,58.6100905 110.339736,57.1821994 C110.339736,52.3418905 106.395575,48.4091395 101.556112,48.4091395 C96.7226996,48.4091395 92.7845874,52.3418905 92.7845874,57.1821994 C92.7845874,58.6100905 93.147547,60.0016794 93.8432197,61.2783108 Z M112.408606,67.328697 L90.7036186,67.328697 L89.7962195,66.1307205 C87.7938921,63.4927522 86.7352597,60.3949545 86.7352597,57.1821994 C86.7352597,49.0081277 93.3895201,42.3587534 101.556112,42.3587534 C109.734803,42.3587534 116.389064,49.0081277 116.389064,57.1821994 C116.389064,60.4010048 115.324382,63.4988025 113.316005,66.1367709 L112.408606,67.328697 Z" id="Fill-283" fill="#152C4D"></path>
        </g>
    </g>
</svg>